<svg xmlns="http://www.w3.org/2000/svg" viewBox="0 0 150 62.095">
  <g transform="translate(-863 -500)">
    <path d="M22.871,6.817,0,55.883H13.494L29.388,21.806l2.435,14.059,10.342-2.877V6.817Z" transform="translate(863 498.421)" fill="#fff"/>
    <path d="M34.653,65.653l6.6-14.15,8.939-2.487V65.653Z" transform="translate(854.977 488.651)" fill="#fff"/>
    <path d="M95.261,0l15.461,7.028L95.261,5.239l3.833-1.725Z" transform="translate(840.945 500)" fill="#fff"/>
    <path d="M60.511,6.817,102.677,10.4,66.261,20.744s11.372-3.833,11.372-6.963S60.511,6.817,60.511,6.817" transform="translate(848.99 498.421)" fill="#fff"/>
    <path d="M85.95,19.806,108.566,13.8,88.122,23.895s9.292-5.78-2.172-4.089" transform="translate(843.1 496.805)" fill="#fff"/>
    <path d="M117.541,6.81V13.2s5.877.511,5.877-3.195-5.877-3.195-5.877-3.195" transform="translate(835.786 498.428)" fill="#fff"/>
    <path d="M85.019,25.3,102.912,16,82.637,48.681H98.46l-5.78,9.327H64.765Z" transform="translate(848.005 496.296)" fill="#fff"/>
    <path d="M149.545,6.817l-5.332,8.561h33.871l5.306-8.561Z" transform="translate(829.611 498.421)" fill="#fff"/>
    <path d="M132.4,26.936l-20.844,33.6h33.86L151,51.529H129.24l9.634-15.522h21.75l5.622-9.072Z" transform="translate(837.172 493.763)" fill="#fff"/>
    <path d="M28.179,78.653H26.635l-.214.727H25.032l1.655-4.4H28.17l1.654,4.4H28.4ZM27.9,77.7l-.486-1.582-.48,1.582Z" transform="translate(857.204 482.64)" fill="#fff"/>
    <path d="M31.773,74.979h3.849v.88l-2.471,2.575h2.561v.946H31.536v-.913l2.445-2.548H31.773Z" transform="translate(855.699 482.64)" fill="#fff"/>
    <path d="M37.922,74.979h3.644v.94H39.285v.7H41.4v.9H39.285v.868h2.348v1h-3.71Z" transform="translate(854.22 482.64)" fill="#fff"/>
    <path d="M46.7,74.979h2.545a1.389,1.389,0,0,1,.978.315,1.021,1.021,0,0,1,.34.781.983.983,0,0,1-.243.669,1.088,1.088,0,0,1-.474.294,1.227,1.227,0,0,1,.7.391,1.08,1.08,0,0,1,.224.7,1.2,1.2,0,0,1-.159.615,1.166,1.166,0,0,1-.436.433,1.432,1.432,0,0,1-.516.144,5.984,5.984,0,0,1-.609.06H46.7Zm1.372,1.726h.592a.68.68,0,0,0,.443-.11.4.4,0,0,0,.124-.317.374.374,0,0,0-.124-.3.669.669,0,0,0-.434-.108h-.6Zm0,1.729h.693a.764.764,0,0,0,.5-.124.421.421,0,0,0,.144-.335.389.389,0,0,0-.142-.314.8.8,0,0,0-.5-.118h-.69Z" transform="translate(852.189 482.64)" fill="#fff"/>
    <path d="M55.51,78.653H53.966l-.214.727H52.363l1.655-4.4H55.5l1.654,4.4H55.73Zm-.282-.951-.486-1.582-.48,1.582Z" transform="translate(850.877 482.64)" fill="#fff"/>
    <path d="M59.343,74.979h2.02a2.416,2.416,0,0,1,.965.162,1.571,1.571,0,0,1,.608.466,1.906,1.906,0,0,1,.348.7,3.267,3.267,0,0,1,.108.853,2.965,2.965,0,0,1-.161,1.094,1.8,1.8,0,0,1-.446.651,1.452,1.452,0,0,1-.612.35,3.132,3.132,0,0,1-.811.121h-2.02Zm1.36,1v2.4h.334a1.406,1.406,0,0,0,.606-.095.645.645,0,0,0,.282-.33,2.081,2.081,0,0,0,.1-.764,1.484,1.484,0,0,0-.228-.958.966.966,0,0,0-.757-.258Z" transform="translate(849.261 482.64)" fill="#fff"/>
    <path d="M65.684,74.979h1.788l.69,2.677.685-2.677h1.787v4.4H69.52V76.024l-.858,3.357H67.654L66.8,76.024V79.38H65.684Z" transform="translate(847.793 482.64)" fill="#fff"/>
    <rect width="1.363" height="4.401" transform="translate(919.471 557.619)" fill="#fff"/>
    <path d="M76.7,74.979h1.27l1.658,2.435V74.979h1.282v4.4H79.626l-1.648-2.417V79.38H76.7Z" transform="translate(845.242 482.64)" fill="#fff"/>
    <path d="M83.109,74.979h4.134v1.087H85.855V79.38H84.5V76.066H83.109Z" transform="translate(843.758 482.64)" fill="#fff"/>
    <path d="M88.952,77.16a2.085,2.085,0,0,1,2.272-2.279,2.3,2.3,0,0,1,1.694.59,2.225,2.225,0,0,1,.594,1.652,2.715,2.715,0,0,1-.26,1.266,1.848,1.848,0,0,1-.75.768,2.482,2.482,0,0,1-1.223.274,2.815,2.815,0,0,1-1.233-.237,1.859,1.859,0,0,1-.791-.751,2.492,2.492,0,0,1-.3-1.285m1.36.006a1.475,1.475,0,0,0,.247.958.938.938,0,0,0,1.353.006,1.63,1.63,0,0,0,.241-1.024A1.363,1.363,0,0,0,91.9,76.2a.855.855,0,0,0-.679-.287.827.827,0,0,0-.661.291,1.482,1.482,0,0,0-.249.964" transform="translate(842.405 482.663)" fill="#fff"/>
    <path d="M96.011,74.979h1.27l1.658,2.435V74.979h1.282v4.4H98.938l-1.648-2.417V79.38H96.011Z" transform="translate(840.771 482.64)" fill="#fff"/>
    <path d="M108.224,78.653H106.68l-.214.727h-1.389l1.655-4.4h1.482l1.655,4.4h-1.425Zm-.282-.951-.486-1.582-.481,1.582Z" transform="translate(838.672 482.64)" fill="#fff"/>
    <path d="M114.77,77.556l1.192.36a2.2,2.2,0,0,1-.378.838,1.643,1.643,0,0,1-.641.507,2.4,2.4,0,0,1-.974.171,2.825,2.825,0,0,1-1.172-.208,1.861,1.861,0,0,1-.785-.733,2.49,2.49,0,0,1-.33-1.344,2.283,2.283,0,0,1,.581-1.678,2.645,2.645,0,0,1,2.951-.251,1.971,1.971,0,0,1,.707,1.033l-1.2.267a1.035,1.035,0,0,0-.132-.294.777.777,0,0,0-.28-.241.859.859,0,0,0-1.077.287,1.582,1.582,0,0,0-.186.867,1.65,1.65,0,0,0,.222,1,.877.877,0,0,0,1.214.052,1.347,1.347,0,0,0,.29-.636" transform="translate(837.143 482.663)" fill="#fff"/>
    <path d="M120.844,78.653H119.3l-.214.727H117.7l1.655-4.4h1.483l1.654,4.4h-1.424Zm-.282-.951-.486-1.582L119.6,77.7Z" transform="translate(835.75 482.64)" fill="#fff"/>
    <path d="M124.677,74.979h2.02a2.41,2.41,0,0,1,.965.162,1.565,1.565,0,0,1,.608.466,1.9,1.9,0,0,1,.348.7,3.267,3.267,0,0,1,.108.853,2.949,2.949,0,0,1-.161,1.094,1.8,1.8,0,0,1-.446.651,1.447,1.447,0,0,1-.612.35,3.127,3.127,0,0,1-.811.121h-2.02Zm1.36,1v2.4h.334a1.4,1.4,0,0,0,.606-.095.642.642,0,0,0,.282-.33,2.064,2.064,0,0,0,.1-.764,1.484,1.484,0,0,0-.228-.958.964.964,0,0,0-.757-.258Z" transform="translate(834.134 482.64)" fill="#fff"/>
    <path d="M131.033,74.979h3.644v.94H132.4v.7h2.116v.9H132.4v.868h2.348v1h-3.71Z" transform="translate(832.663 482.64)" fill="#fff"/>
    <path d="M136.955,74.979h1.788l.69,2.677.684-2.677H141.9v4.4h-1.113V76.024l-.858,3.357h-1.008l-.856-3.357V79.38h-1.114Z" transform="translate(831.292 482.64)" fill="#fff"/>
    <path d="M144.107,74.979h1.511l.886,1.485.888-1.485h1.5l-1.711,2.557V79.38h-1.363V77.537Z" transform="translate(829.636 482.64)" fill="#fff"/>
  </g>
</svg>
