<?xml version="1.0" encoding="UTF-8"?>
<svg id="Layer_2" xmlns="http://www.w3.org/2000/svg" version="1.1" viewBox="0 0 1891.3 1891.3">
  <!-- Generator: Adobe Illustrator 29.3.1, SVG Export Plug-In . SVG Version: 2.1.0 Build 151)  -->
  <path class="st0" d="M0,1294.5l596.8,596.8L1891.3,596.8,1294.5,0,0,1294.5ZM1335.5,52.7l-70.2,70.2-41-41,70.2-70.2s41,41,41,41ZM568.3,1783.1l14.3,14.3-34,34-242.1-242.1,65.8-65.8,242.1,242.1-26,26-14.3-14.3-5.8,5.8ZM670.7,664.8l-14.6-14.6,188-188,41,41-188,188-8.8-8.8-5.8,5.8,8.8,8.8-188,188-41-41,188-188,14.6,14.6,5.8-5.8h0ZM1173.8,1179.7l13.2,13.2-188,188-490-490,188-188,2.9,2.9,5.8-5.8-2.9-2.9,188-188,490,490-188,188-13.2-13.2-5.8,5.8h0ZM896.6,503.2l341.2-341.2,15,15,5.8-5.9-15-15,21.6-21.6,242.1,242.1-368.6,368.6-242.1-242.1h0ZM890.8,497.3l-41-41,368.6-368.6,41,41-368.6,368.6h0ZM497.3,890.8l-373,373-41-41,373-373,41,41h0ZM503.2,896.6l242.1,242.1-373,373-242.1-242.1,373-373h0ZM366.4,1517.6l-65.8,65.8-242.1-242.1,65.8-65.8,242.1,242.1ZM378.1,1517.6l373-373,242.1,242.1-349.2,349.2-14.3-14.3-5.8,5.8,14.3,14.3-17.9,17.9-242.1-242.1ZM999,1392.5l42.4,42.4-373,373-42.4-42.4,373-373h0ZM1004.9,1386.7l381.8-381.8,42.4,42.4-381.8,381.8-42.4-42.4h0ZM1392.5,999l368.6-368.6,42.4,42.4-368.6,368.6-42.4-42.4h0ZM1386.7,993.2l-242.1-242.1,368.6-368.6,242.1,242.1-368.6,368.6h0ZM1519,376.6l70.2-70.2,242.1,242.1-70.2,70.2-242.1-242.1h0ZM1513.2,370.8l-242.1-242.1,22.3-22.3,15,15,5.8-5.8-15-15,42.1-42,242.1,242.1-70.2,70.2h0ZM77.5,1228.7l41,41-65.8,65.8-41-41,65.8-65.8ZM554.4,1837.2l65.8-65.8,42.4,42.4-65.8,65.8-42.4-42.4ZM1809.4,667l-42.4-42.4,70.2-70.2,42.4,42.4-70.2,70.2Z" fill="#fff"/>
  <rect class="st0" x="795.2" y="787" width="8.3" height="24.8" transform="translate(-331.1 799.4) rotate(-45)" fill="#fff"/>
  <rect class="st0" x="830.3" y="822.1" width="8.3" height="24.8" transform="translate(-345.7 834.5) rotate(-45)" fill="#fff"/>
  <rect class="st0" x="725" y="716.8" width="8.3" height="24.8" transform="translate(-302 729.2) rotate(-45)" fill="#fff"/>
  <rect class="st0" x="760.1" y="751.9" width="8.3" height="24.8" transform="translate(-316.6 764.3) rotate(-45)" fill="#fff"/>
  <rect class="st0" x="865.5" y="857.2" width="8.3" height="24.8" transform="translate(-360.2 869.6) rotate(-45)" fill="#fff"/>
  <rect class="st0" x="1041" y="1032.7" width="8.3" height="24.8" transform="translate(-432.9 1045.1) rotate(-45)" fill="#fff"/>
  <rect class="st0" x="1111.2" y="1102.9" width="8.3" height="24.8" transform="translate(-462 1115.3) rotate(-45)" fill="#fff"/>
  <rect class="st0" x="900.6" y="892.3" width="8.3" height="24.8" transform="translate(-374.7 904.7) rotate(-45)" fill="#fff"/>
  <rect class="st0" x="1146.3" y="1138" width="8.3" height="24.8" transform="translate(-476.5 1150.4) rotate(-45)" fill="#fff"/>
  <rect class="st0" x="1216.5" y="1208.2" width="8.3" height="24.8" transform="translate(-505.6 1220.6) rotate(-45)" fill="#fff"/>
  <rect class="st0" x="1076.1" y="1067.8" width="8.3" height="24.8" transform="translate(-447.4 1080.2) rotate(-45)" fill="#fff"/>
  <rect class="st0" x="935.7" y="927.4" width="8.3" height="24.8" transform="translate(-389.3 939.8) rotate(-45)" fill="#fff"/>
  <rect class="st0" x="970.8" y="962.5" width="8.3" height="24.8" transform="translate(-403.8 974.9) rotate(-45)" fill="#fff"/>
  <rect class="st0" x="1005.9" y="997.6" width="8.3" height="24.8" transform="translate(-418.4 1010) rotate(-45)" fill="#fff"/>
</svg>