<?xml version="1.0" encoding="UTF-8"?>
<svg id="Layer_2" data-name="Layer 2" xmlns="http://www.w3.org/2000/svg" viewBox="0 0 51.11 51.11">
  <defs>
    <style>
      .cls-1 {
        fill: none;
      }

      .cls-2 {
        fill: #fff;
      }
    </style>
  </defs>
  <g id="Layer_1-2" data-name="Layer 1">
    <rect class="cls-1" width="51.11" height="51.11"/>
    <path class="cls-2" d="M32.82,8.91c.9-1.13.72-2.77-.41-3.67s-2.77-.72-3.67.41l-3.18,3.98-3.18-3.98c-.9-1.13-2.55-1.31-3.67-.41s-1.31,2.55-.41,3.67l3.92,4.9L3.06,37.75c-.65.82-1,1.82-1,2.86v1.93c0,2.16,1.75,3.92,3.92,3.92h39.17c2.16,0,3.92-1.75,3.92-3.92v-1.93c0-1.04-.35-2.05-1-2.86L28.9,13.8l3.92-4.9ZM25.55,41.22h-9.75l9.75-12.75,9.75,12.75h-9.75Z"/>
  </g>
</svg>