<?xml version="1.0" encoding="UTF-8"?>
<svg id="Layer_2" data-name="Layer 2" xmlns="http://www.w3.org/2000/svg" viewBox="0 0 51.11 51.11">
  <defs>
    <style>
      .cls-1 {
        fill: none;
      }

      .cls-2 {
        fill: #fff;
        stroke: #fff;
        stroke-miterlimit: 10;
        stroke-width: 3px;
      }
    </style>
  </defs>
  <g id="Layer_1-2" data-name="Layer 1">
    <path class="cls-2" d="M39.98,24.1c2.32,0,4.21-1.89,4.21-4.21s-1.89-4.21-4.21-4.21-4.21,1.89-4.21,4.21c0,2.32,1.89,4.21,4.21,4.21ZM39.98,16.61c1.8,0,3.27,1.47,3.27,3.27s-1.47,3.27-3.27,3.27-3.27-1.47-3.27-3.27,1.46-3.27,3.27-3.27ZM39.98,24.51c-2.46,0-4.76,1.05-6.39,2.89-2.06-2.05-4.9-3.31-8.03-3.31s-5.97,1.27-8.03,3.32c-1.63-1.84-3.93-2.89-6.39-2.89-4.72,0-8.57,3.84-8.57,8.56,0,1.14.11,1.6,1.34,2.23,1.9.99,5.57,1.35,7.02,1.35.09,0,.43,0,.54,0,.63-.02,1.63-.04,2.72-.19.11.84.48,1.3,1.68,1.93,2.84,1.47,8.45,1.79,9.7,1.79s6.86-.32,9.7-1.79c1.2-.62,1.56-1.09,1.68-1.93,1.1.14,2.1.17,2.72.19.12,0,.46,0,.54,0,1.45,0,5.11-.36,7.02-1.34,1.23-.63,1.34-1.1,1.34-2.23,0-4.73-3.85-8.58-8.57-8.58h0ZM14.14,35.51h0c-1.07.16-2.08.19-2.71.2-.12,0-.23,0-.32,0-1.14.04-4.95-.28-6.78-1.23-.83-.43-.83-.52-.83-1.4,0-4.21,3.43-7.63,7.63-7.63,2.22,0,4.29.96,5.76,2.65-1.71,2-2.74,4.59-2.74,7.41h0ZM34.82,37.55c-2.48,1.28-7.66,1.68-9.27,1.68s-6.78-.4-9.27-1.68c-1.21-.62-1.21-.81-1.21-2.04,0-5.78,4.7-10.47,10.47-10.47s10.47,4.7,10.47,10.47c0,1.22,0,1.41-1.21,2.04ZM46.78,34.48c-1.84.95-5.64,1.27-6.78,1.23-.09,0-.2,0-.32,0-.62-.02-1.63-.04-2.71-.19h0c0-2.83-1.04-5.42-2.74-7.41,1.46-1.69,3.53-2.65,5.76-2.65,4.21,0,7.63,3.43,7.63,7.63,0,.88,0,.97-.83,1.4h0ZM11.12,24.1c2.32,0,4.21-1.89,4.21-4.21s-1.89-4.21-4.21-4.21-4.21,1.89-4.21,4.21,1.89,4.21,4.21,4.21ZM11.12,16.61c1.8,0,3.27,1.47,3.27,3.27s-1.47,3.27-3.27,3.27-3.27-1.47-3.27-3.27,1.46-3.27,3.27-3.27ZM25.55,23.2c3.04,0,5.53-2.48,5.53-5.53s-2.48-5.53-5.53-5.53-5.53,2.48-5.53,5.53,2.48,5.53,5.53,5.53ZM25.55,13.09c2.53,0,4.59,2.05,4.59,4.59s-2.06,4.58-4.59,4.58-4.59-2.05-4.59-4.59,2.06-4.58,4.59-4.58Z"/>
    <rect class="cls-1" width="51.11" height="51.11"/>
  </g>
</svg>