<svg xmlns="http://www.w3.org/2000/svg" xmlns:xlink="http://www.w3.org/1999/xlink" width="55" height="55" viewBox="0 0 55 55"><defs><clipPath id="a"><rect width="50" height="50" fill="#ff6500"/></clipPath></defs><g transform="translate(-1071 -399)"><g transform="translate(1073 401)"><g transform="translate(0 0)" clip-path="url(#a)"><path d="M22.352,2.117A20.237,20.237,0,1,0,42.59,22.355,20.253,20.253,0,0,0,22.352,2.117m0,2.382A17.857,17.857,0,1,1,4.5,22.355,17.837,17.837,0,0,1,22.352,4.5" transform="translate(2.647 2.645)" fill="#ff6500"/><path d="M11.785,0a1.19,1.19,0,1,0-.038,2.38h.038a22.62,22.62,0,0,1,0,45.24A1.19,1.19,0,1,0,11.747,50h.038a25,25,0,1,0,0-50" transform="translate(13.216 0)" fill="#ff6500"/><path d="M2.38,11.773a1.19,1.19,0,1,1-1.19-1.19,1.191,1.191,0,0,1,1.19,1.19" transform="translate(0 13.226)" fill="#ff6500"/><path d="M9.344,2.7a1.19,1.19,0,1,1,.841-1.458A1.191,1.191,0,0,1,9.344,2.7" transform="translate(9.804 0.449)" fill="#ff6500"/><path d="M7.078,3.64a1.191,1.191,0,1,1,.436-1.627A1.191,1.191,0,0,1,7.078,3.64" transform="translate(6.614 1.771)" fill="#ff6500"/><path d="M5.132,5.131a1.19,1.19,0,1,1,0-1.683,1.188,1.188,0,0,1,0,1.683" transform="translate(3.874 3.872)" fill="#ff6500"/><path d="M3.64,7.077A1.191,1.191,0,1,1,3.2,5.451,1.191,1.191,0,0,1,3.64,7.077" transform="translate(1.771 6.612)" fill="#ff6500"/><path d="M2.7,9.343A1.19,1.19,0,1,1,1.86,7.885,1.191,1.191,0,0,1,2.7,9.343" transform="translate(0.451 9.802)" fill="#ff6500"/><path d="M2.7,14.205a1.19,1.19,0,1,1-1.458-.841,1.191,1.191,0,0,1,1.458.841" transform="translate(0.451 16.649)" fill="#ff6500"/><path d="M3.64,16.471a1.191,1.191,0,1,1-1.627-.436,1.192,1.192,0,0,1,1.627.436" transform="translate(1.771 19.839)" fill="#ff6500"/><path d="M5.132,18.417a1.19,1.19,0,1,1-1.683,0A1.188,1.188,0,0,1,5.132,18.417Z" transform="translate(3.874 22.579)" fill="#ff6500"/><path d="M7.078,19.909a1.191,1.191,0,1,1-1.627.436,1.191,1.191,0,0,1,1.627-.436" transform="translate(6.614 24.681)" fill="#ff6500"/><path d="M9.344,20.848a1.19,1.19,0,1,1-1.458.841A1.191,1.191,0,0,1,9.344,20.848Z" transform="translate(9.804 26.002)" fill="#ff6500"/><path d="M11.755,4.227a1.188,1.188,0,0,0-1.172,1.2v14.29a1.18,1.18,0,0,0,.351.839l7.141,7.145a1.192,1.192,0,0,0,1.69-1.681l0,0-6.8-6.8V5.431a1.191,1.191,0,0,0-1.177-1.2h-.031" transform="translate(13.226 5.282)" fill="#ff6500"/></g></g><rect width="55" height="55" transform="translate(1071 399)" fill="none"/></g></svg>