<svg xmlns="http://www.w3.org/2000/svg" viewBox="0 0 105 105">
  <g clip-path="url(#a)" transform="translate(3 44)">
    <path d="M0 42.746v4.8a2.134 2.134 0 1 0 4.267 0v-4.8a16.1 16.1 0 0 1 31.364-5.121 20.4 20.4 0 0 0-6.4 14.829v4.8a2.134 2.134 0 1 0 4.267 0v-4.8a16.111 16.111 0 0 1 32.111-2.667 11 11 0 0 1 0 2.667v4.8a2.134 2.134 0 1 0 4.267 0v-4.8a20.4 20.4 0 0 0-6.4-14.829 16.106 16.106 0 0 1 31.258 5.121v4.8a2.134 2.134 0 1 0 4.267 0v-4.8a20.21 20.21 0 0 0-12.483-18.669A13.346 13.346 0 1 0 67.849 21.3a11.4 11.4 0 0 0 2.774 2.774 19.95 19.95 0 0 0-10.775 10.884l-2.454-1.28A13.346 13.346 0 1 0 38.725 30.9a11.4 11.4 0 0 0 2.775 2.778l-2.454 1.28A19.95 19.95 0 0 0 28.27 24.077 13.346 13.346 0 1 0 9.6 21.3a11.4 11.4 0 0 0 2.774 2.774A20.39 20.39 0 0 0 0 42.746m69.556-29.337a9.068 9.068 0 1 1 9.068 9.068 9.06 9.06 0 0 1-9.068-9.068m-29.124 9.708a9.069 9.069 0 1 1 9.175 8.961H49.5a9.04 9.04 0 0 1-9.068-8.961m-29.124-9.708a9.068 9.068 0 1 1 9.068 9.068 9.06 9.06 0 0 1-9.068-9.068" fill="#FF6500"/>
  </g>
  <path fill="none" d="M0 0h105v105H0z"/>
</svg>
