<svg xmlns="http://www.w3.org/2000/svg" xmlns:xlink="http://www.w3.org/1999/xlink" width="55" height="55" viewBox="0 0 55 55"><defs><clipPath id="a"><rect width="50" height="50.006" fill="#ff6500"/></clipPath></defs><g transform="translate(-1347 -399)"><g transform="translate(1349 401)"><g clip-path="url(#a)"><path d="M1.557,0A1.563,1.563,0,0,0,0,1.569v46.88a1.563,1.563,0,0,0,1.557,1.557H33.973a1.563,1.563,0,0,0,1.569-1.557V30.592l14-14a1.563,1.563,0,0,0,0-2.2l-4.96-4.96a1.54,1.54,0,0,0-2.2,0l-6.84,6.84V1.569A1.563,1.563,0,0,0,33.973,0ZM3.113,3.125h29.3V19.39L18.572,33.234a1.562,1.562,0,0,0-.449,1.187l.265,4.682a1.563,1.563,0,0,0,1.465,1.477l4.694.265a1.417,1.417,0,0,0,.156,0,1.541,1.541,0,0,0,.156-.012,1.562,1.562,0,0,0,.876-.437l6.678-6.678V46.88H3.113Zm5.32,4.786a1.566,1.566,0,0,0,.15,3.129H26.947a1.564,1.564,0,1,0,0-3.129H8.582Q8.508,7.907,8.433,7.911ZM43.49,12.733l2.744,2.747-1.868,1.868L41.622,14.6Zm-4.078,4.078,2.744,2.747-9.181,9.181c-.038.032-.075.065-.11.1L24.03,37.684l-2.6-.15-.15-2.594,13.8-13.8.027-.028Zm-30.979.778a1.566,1.566,0,0,0,.15,3.129H26.947a1.564,1.564,0,1,0,0-3.129H8.582Q8.507,17.586,8.432,17.589Zm.15,9.669a1.563,1.563,0,1,0,0,3.125h5.86a1.563,1.563,0,1,0,0-3.125Z" transform="translate(0)" fill="#ff6500"/></g></g><rect width="55" height="55" transform="translate(1347 399)" fill="none"/></g></svg>