<svg xmlns="http://www.w3.org/2000/svg" viewBox="0 0 115 115">
  <g clip-path="url(#a)" fill="#ff6500" transform="translate(13 8)">
    <path d="M84.282.001H4.029A4.03 4.03 0 0 0 .001 4.029v16.723a4.03 4.03 0 0 0 4.028 4.029h13.252V95.97a4.03 4.03 0 0 0 4.029 4.031h45.559a4.03 4.03 0 0 0 4.055-4v-71.22h13.252a4.03 4.03 0 0 0 4.133-3.921V4.029A4.03 4.03 0 0 0 84.282.001M65.608 94.613H48.241V81.971a4.028 4.028 0 1 0-7.951 0v12.642H22.701V66.631h42.907Zm17.093-77.576a2.023 2.023 0 0 1-2.022 2.022H67.63a2.023 2.023 0 0 0-2.022 2.022v40.72H22.701V21.082a2.02 2.02 0 0 0-2.022-2.022H7.628a2.023 2.023 0 0 1-2.022-2.022V7.391a2.023 2.023 0 0 1 2.022-2.022h73.054a2.023 2.023 0 0 1 2.019 2.022Z"/>
    <path d="m61.617 4.455-4.31-2.234-10.814 20.865h-4.676L30.999 2.221l-4.31 2.234 9.657 18.632h-4.273v24.164h24.165V23.086H51.96ZM51.384 42.398H36.927V27.94h14.457Z"/>
  </g>
  <g fill="none" stroke="none">
    <path d="M0 0h115v115H0z" stroke="none"/>
    <path d="M.5.5h114v114H.5z"/>
  </g>
</svg>
