<svg xmlns="http://www.w3.org/2000/svg" viewBox="0 0 105 105">
  <g clip-path="url(#a)" fill="#fff" transform="translate(3 3)">
    <path d="M97.368 85.19h-1.651V72.674a7.19 7.19 0 0 0-4.278-6.567 8.2 8.2 0 0 0-5.31-11.9 8.3 8.3 0 0 0-7.018 1.576 8.16 8.16 0 0 0-3.1 6.417 8.3 8.3 0 0 0 .994 3.9 7.21 7.21 0 0 0-4.278 6.586v12.516h-1.651a1.654 1.654 0 0 0-1.648 1.658v13.135h3.284V88.511h23v11.484h3.284V86.86a1.64 1.64 0 0 0-1.632-1.67M81.152 58.338a4.909 4.909 0 0 1 6.3 7.524l-3.246 2.477-3.246-2.477a4.82 4.82 0 0 1-1.689-3.659 4.98 4.98 0 0 1 1.876-3.865m4.466 17.113-1.389 2.777-1.389-2.777 1.389-2.083Zm6.811 9.72h-16.41V72.655a3.91 3.91 0 0 1 3.414-3.865l2.571 1.97-2.421 3.659a1.63 1.63 0 0 0-.094 1.651l3.284 6.568a1.62 1.62 0 0 0 1.464.9 1.66 1.66 0 0 0 1.464-.9l3.284-6.568a1.67 1.67 0 0 0-.094-1.651l-2.439-3.64 2.571-1.97a3.91 3.91 0 0 1 3.41 3.865Zm-68.95 14.786V93.39a1.654 1.654 0 0 0-1.651-1.651H8.688a1.654 1.654 0 0 0-1.651 1.651v6.567h3.3v-4.919h9.851v4.916Zm34.488 0V93.39a1.654 1.654 0 0 0-1.651-1.651H43.176a1.654 1.654 0 0 0-1.651 1.651v6.567h3.284v-4.919h9.851v4.916Z"/>
    <path d="M92.432 99.957V93.39a1.654 1.654 0 0 0-1.651-1.651H77.646a1.654 1.654 0 0 0-1.651 1.65v6.567h3.284v-4.918h9.87v4.916ZM28.39 85.19h-1.651V72.674a7.19 7.19 0 0 0-4.278-6.567 8.2 8.2 0 0 0-5.31-11.9 8.3 8.3 0 0 0-7.018 1.576 8.16 8.16 0 0 0-3.1 6.417 8.3 8.3 0 0 0 .995 3.9 7.21 7.21 0 0 0-4.278 6.593v12.516H2.101A1.654 1.654 0 0 0 .45 86.86v13.135h3.321V88.511h22.986v11.484h3.284V86.86a1.646 1.646 0 0 0-1.651-1.67M12.196 58.338a4.909 4.909 0 0 1 6.3 7.524l-3.246 2.477-3.227-2.477a4.82 4.82 0 0 1-1.689-3.659 4.9 4.9 0 0 1 1.858-3.865m4.466 17.113-1.389 2.777-1.389-2.777 1.389-2.083Zm6.811 9.72H7.055V72.655a3.91 3.91 0 0 1 3.415-3.865l2.571 1.97-2.421 3.64a1.63 1.63 0 0 0-.094 1.651l3.284 6.569a1.62 1.62 0 0 0 1.464.9 1.66 1.66 0 0 0 1.464-.9l3.284-6.567a1.67 1.67 0 0 0-.094-1.651l-2.439-3.621 2.571-1.97a3.91 3.91 0 0 1 3.415 3.865Zm39.41.019h-1.651V72.674a7.19 7.19 0 0 0-4.278-6.567 8.2 8.2 0 0 0-5.31-11.9 8.3 8.3 0 0 0-7.018 1.576 8.16 8.16 0 0 0-3.1 6.417 8.3 8.3 0 0 0 .994 3.9 7.21 7.21 0 0 0-4.278 6.586v12.516h-1.632a1.654 1.654 0 0 0-1.651 1.651v13.135h3.284V88.511h22.989v11.484h3.284V86.86a1.64 1.64 0 0 0-1.632-1.67M46.668 58.338a4.909 4.909 0 0 1 6.3 7.524l-3.227 2.477-3.246-2.477a4.82 4.82 0 0 1-1.689-3.659 5.02 5.02 0 0 1 1.858-3.865m4.466 17.113-1.389 2.777-1.389-2.777 1.389-2.083Zm6.83 9.72H41.544V72.655a3.91 3.91 0 0 1 3.415-3.865l2.571 1.97-2.421 3.64a1.63 1.63 0 0 0-.094 1.651l3.284 6.567a1.62 1.62 0 0 0 1.464.9 1.66 1.66 0 0 0 1.464-.9l3.284-6.567a1.67 1.67 0 0 0-.094-1.651l-2.458-3.621 2.571-1.97a3.91 3.91 0 0 1 3.415 3.865Zm-.091-51.396a1.66 1.66 0 0 0-1.313-1.107l-3.678-.544-1.651-3.434a1.67 1.67 0 0 0-1.482-.938 1.63 1.63 0 0 0-1.482.938l-1.651 3.434-3.678.544a1.63 1.63 0 0 0-1.313 1.107 1.66 1.66 0 0 0 .394 1.67l2.683 2.683-.638 3.79a1.65 1.65 0 0 0 .657 1.614 1.6 1.6 0 0 0 1.726.113l3.3-1.764 3.284 1.764a1.6 1.6 0 0 0 .769.206 1.75 1.75 0 0 0 .957-.3 1.63 1.63 0 0 0 .657-1.614l-.638-3.79 2.683-2.683a1.67 1.67 0 0 0 .413-1.689m-6 2.627a1.6 1.6 0 0 0-.45 1.426l.225 1.332-1.107-.6a1.6 1.6 0 0 0-.769-.206 1.6 1.6 0 0 0-.769.206l-1.107.6.225-1.332a1.6 1.6 0 0 0-.45-1.426l-.976-.976 1.313-.188a1.61 1.61 0 0 0 1.238-.919l.563-1.145.544 1.145a1.7 1.7 0 0 0 1.238.919l1.313.188ZM20.847 30.68l12.14 8.087a4.8 4.8 0 0 0 2.7.826 4.887 4.887 0 0 0 3.453-8.35l-3.04-3.04a2.79 2.79 0 0 1 .9-4.616l1.951-.976-1.464-2.946-1.951.976a6.065 6.065 0 0 0-1.764 9.87l3.04 3.04a1.608 1.608 0 0 1-2.027 2.477l-12.14-8.087a76.9 76.9 0 0 0-21.56-9.964L.9 17.92 0 21.072l.188.056a73.2 73.2 0 0 1 20.659 9.551"/>
    <path d="M21.823 12.947h13.248a10.26 10.26 0 0 1 5.066 1.332l13.7 8.519H39.874v3.284h23v19.7H36.609V42.5h-3.283v4.916a1.654 1.654 0 0 0 1.651 1.651h29.554a1.654 1.654 0 0 0 1.653-1.65V24.431a1.654 1.654 0 0 0-1.651-1.651h-4.468L41.826 11.427a13.7 13.7 0 0 0-6.736-1.783H22.255L4.56 0 2.984 2.89l18.051 9.851a2 2 0 0 0 .788.206"/>
  </g>
  <path fill="none" d="M0 0h105v105H0z"/>
</svg>
