<svg xmlns="http://www.w3.org/2000/svg" viewBox="0 0 115 115">
  <g clip-path="url(#a)" transform="translate(7 6)">
    <path d="M47.105 1.856a4.406 4.406 0 0 1 7.186 0l3.2 4.5 5.3 1.509a4.408 4.408 0 0 1 2.243 6.989l-3.3 4.138.15 5.29a4.406 4.406 0 0 1-5.836 4.293L52.9 27.5v10.58h13.227v-3.309a3.31 3.31 0 0 1 3.307-3.307h17.634a3.31 3.31 0 0 1 3.307 3.307v9.919A3.31 3.31 0 0 1 87.068 48h-6.612v12.119h10.468a3.31 3.31 0 0 1 3.307 3.307v9.919h3.858a3.31 3.31 0 0 1 3.305 3.307v22.041A3.31 3.31 0 0 1 98.089 102H85.966a3.31 3.31 0 0 1-3.307-3.307V76.651a3.31 3.31 0 0 1 3.307-3.307h3.857v-8.817h-23.7v8.817h4.408a3.31 3.31 0 0 1 3.307 3.307v22.042A3.31 3.31 0 0 1 70.535 102H58.412a3.31 3.31 0 0 1-3.305-3.307V76.651a3.31 3.31 0 0 1 3.305-3.307h3.307v-9.919a3.31 3.31 0 0 1 3.307-3.307h11.02V48h-6.612a3.31 3.31 0 0 1-3.307-3.307v-2.2H35.268v2.2A3.31 3.31 0 0 1 31.961 48h-6.612v12.119h10.47a3.31 3.31 0 0 1 3.307 3.307v9.919h3.857a3.31 3.31 0 0 1 3.307 3.307v22.041A3.31 3.31 0 0 1 42.983 102H30.859a3.31 3.31 0 0 1-3.307-3.307V76.651a3.31 3.31 0 0 1 3.307-3.307h3.858v-8.817h-23.7v8.817h4.413a3.31 3.31 0 0 1 3.305 3.307v22.042A3.31 3.31 0 0 1 15.43 102H3.307A3.31 3.31 0 0 1 0 98.693V76.651a3.31 3.31 0 0 1 3.307-3.307h3.306v-9.919a3.31 3.31 0 0 1 3.305-3.307h11.023V48h-6.614a3.31 3.31 0 0 1-3.305-3.307v-9.922a3.31 3.31 0 0 1 3.305-3.307h17.634a3.31 3.31 0 0 1 3.307 3.307v3.305h13.225V27.5l-3.14 1.075a4.405 4.405 0 0 1-5.836-4.293l.148-5.29-3.3-4.138a4.407 4.407 0 0 1 2.242-6.989l5.3-1.509Zm6.788 7.054-3.2-4.5-3.2 4.5a4.4 4.4 0 0 1-2.377 1.69l-5.3 1.5 3.3 4.139a4.4 4.4 0 0 1 .958 2.871l-.154 5.3 5.35-1.84a4.38 4.38 0 0 1 2.854 0l5.347 1.835-.15-5.3a4.4 4.4 0 0 1 .959-2.871l3.3-4.139-5.3-1.5a4.4 4.4 0 0 1-2.387-1.685M30.859 35.873h-15.43v7.715h15.43ZM14.327 77.754v19.837H4.408V77.754Zm27.553 0v19.837h-9.919V77.754Zm27.553 0h-9.919v19.837h9.919Zm27.552 19.837h-9.919V77.754h9.919Zm-11.02-54H70.534v-7.72h15.43Z" fill="#ff6500" fill-rule="evenodd"/>
  </g>
  <path fill="none" d="M0 0h115v115H0z"/>
</svg>
