<svg xmlns="http://www.w3.org/2000/svg" viewBox="0 0 105 105">
  <g clip-path="url(#a)" fill="#fff" transform="translate(3 2)">
    <path d="M49.493 0a49.493 49.493 0 0 0 0 98.986 2.7 2.7 0 1 0 0-5.4A44.052 44.052 0 1 1 66.482 90.2a2.7 2.7 0 1 0 2.063 4.989l.018-.007A49.5 49.5 0 0 0 49.493 0"/>
    <path d="M32.795 72.691a8.306 8.306 0 0 0 8.3 8.3h16.8a8.306 8.306 0 0 0 8.3-8.3v-5.6c0-.23-.058-.443-.065-.67a8.3 8.3 0 0 0 2.966.572h11.2a8.31 8.31 0 0 0 8.3-8.3v-2.8a13.88 13.88 0 0 0-6.256-11.587 11.1 11.1 0 1 0-15.687-.4q.195.21.4.4a13.87 13.87 0 0 0-6.159 10.647 17 17 0 0 0-3.187-2.311 12.5 12.5 0 1 0-17.634-1.213 13 13 0 0 0 1.209 1.213 16.7 16.7 0 0 0-3.178 2.311 13.86 13.86 0 0 0-6.162-10.647 11.1 11.1 0 1 0-15.69-.4q.197.205.4.4a13.9 13.9 0 0 0-6.257 11.587v2.8a8.31 8.31 0 0 0 8.3 8.3h11.2a8.3 8.3 0 0 0 2.97-.572c-.011.227-.068.439-.068.67Zm36.2-36.394a5.7 5.7 0 1 1 5.7 5.7 5.7 5.7 0 0 1-5.7-5.7m-2.8 19.6a8.5 8.5 0 0 1 17 0v2.8a2.9 2.9 0 0 1-2.9 2.9h-11.2a2.906 2.906 0 0 1-2.9-2.9Zm-23.793-12.6a7.1 7.1 0 1 1 7.1 7.1 7.1 7.1 0 0 1-7.1-7.1m18.393 23.8v5.6a2.9 2.9 0 0 1-2.9 2.9h-16.8a2.9 2.9 0 0 1-2.9-2.9v-5.6a11.3 11.3 0 1 1 22.594 0m-42.194-30.8a5.7 5.7 0 1 1 5.7 5.7 5.7 5.7 0 0 1-5.7-5.7m14.2 22.4a2.9 2.9 0 0 1-2.9 2.9h-11.2a2.906 2.906 0 0 1-2.9-2.9v-2.8a8.5 8.5 0 0 1 17 0Z"/>
  </g>
  <path fill="none" d="M0 0h105v105H0z"/>
</svg>
