<svg xmlns="http://www.w3.org/2000/svg" xmlns:xlink="http://www.w3.org/1999/xlink" width="55" height="55" viewBox="0 0 55 55"><defs><clipPath id="a"><rect width="50" height="51.857" fill="#ff6500"/></clipPath></defs><g transform="translate(-1623 -398)"><g transform="translate(1625 400)"><g transform="translate(0 0)" clip-path="url(#a)"><path d="M45.593,9.079A8.426,8.426,0,0,0,42.1,5.142L33.484.16A.939.939,0,0,0,33.309.1a1.12,1.12,0,0,0-.278-.1H33a1.233,1.233,0,0,0-.229.01h-.055a1.466,1.466,0,0,0-.192.008H32.5a1.411,1.411,0,0,0-.21.1,1.268,1.268,0,0,0-.233.107,12.086,12.086,0,0,1-7.044,2.31A12.089,12.089,0,0,1,17.968.245L17.949.234A1.187,1.187,0,0,0,17.774.15,1.214,1.214,0,0,0,17.5.026h-.121a.88.88,0,0,0-.105,0A1.185,1.185,0,0,0,17,.014h-.035c-.045.014-.091.031-.136.05a.281.281,0,0,0-.084.031,1.55,1.55,0,0,0-.227.076L7.905,5.154v0a8.447,8.447,0,0,0-3.5,3.923L.385,18.473A4.855,4.855,0,0,0,2.342,24.52L9.325,28.71l0,18.265a3.064,3.064,0,0,0,2.05,2.9A41.946,41.946,0,0,0,25,51.848a41.963,41.963,0,0,0,13.625-1.972,3.064,3.064,0,0,0,2.05-2.9V28.714l3.464-2.079.025-.018,3.5-2.1,0,0a4.855,4.855,0,0,0,1.953-6.047ZM29.326,4.5l-3.949,6.472a.438.438,0,0,1-.75,0L20.675,4.5a14.8,14.8,0,0,0,4.332.68A14.683,14.683,0,0,0,29.326,4.5Zm8.711,42.478v0a.425.425,0,0,1-.278.412A39.385,39.385,0,0,1,25,49.21a39.2,39.2,0,0,1-12.759-1.825.413.413,0,0,1-.281-.41V44.323A42.973,42.973,0,0,0,25,46.1a43.023,43.023,0,0,0,13.038-1.774ZM46.3,22.261l-5.627,3.377v-7.93a1.319,1.319,0,1,0-2.637,0v23.83A38.887,38.887,0,0,1,25,43.462a38.807,38.807,0,0,1-13.04-1.935V17.708a1.319,1.319,0,0,0-2.637,0v7.928l-2.11-1.263L7.2,24.365l-3.507-2.11a2.2,2.2,0,0,1-.89-2.749l4.03-9.385a5.753,5.753,0,0,1,2.386-2.7l7.5-4.339,5.658,9.255a3.081,3.081,0,0,0,5.258,0l5.649-9.251,7.5,4.339v0a5.754,5.754,0,0,1,2.392,2.7L47.2,19.511v0a2.2,2.2,0,0,1-.9,2.751Z" transform="translate(0 0)" fill="#ff6500"/><path d="M57.448,34.975H53.053a2.2,2.2,0,0,0-2.2,2.193v2.2a4.4,4.4,0,1,0,8.791-.167V37.168A2.2,2.2,0,0,0,57.448,34.975Zm-.439,4.23a1.871,1.871,0,0,1-1.453,1.9,1.758,1.758,0,0,1-2.064-1.735V37.613h3.517Z" transform="translate(-24.032 -16.528)" fill="#ff6500"/></g></g><rect width="55" height="55" transform="translate(1623 398)" fill="none"/></g></svg>