<svg xmlns="http://www.w3.org/2000/svg" xmlns:xlink="http://www.w3.org/1999/xlink" width="55" height="55" viewBox="0 0 55 55"><defs><clipPath id="a"><rect width="55" height="26.159" fill="#ff6500"/></clipPath></defs><g transform="translate(-1624 -1029)"><rect width="55" height="55" transform="translate(1624 1029)" fill="none"/><g transform="translate(1624 1043)"><g clip-path="url(#a)"><path d="M52.061,77.734H45.544a.675.675,0,0,0,0,1.349h6.517a.675.675,0,0,0,0-1.349" transform="translate(-42.129 -72.987)" fill="#ff6500"/><path d="M52.061,141.628H45.544a.675.675,0,0,0,0,1.349h6.517a.675.675,0,0,0,0-1.349" transform="translate(-42.129 -132.979)" fill="#ff6500"/><path d="M52.061,205.52H45.544a.675.675,0,0,0,0,1.349h6.517a.675.675,0,0,0,0-1.349" transform="translate(-42.129 -192.969)" fill="#ff6500"/><path d="M52.061,269.413H45.544a.675.675,0,1,0,0,1.349h6.517a.675.675,0,1,0,0-1.349" transform="translate(-42.129 -252.96)" fill="#ff6500"/><path d="M461.962,74.664H479.4a.675.675,0,0,0,0-1.349H461.962a.675.675,0,1,0,0,1.349" transform="translate(-433.116 -68.838)" fill="#ff6500"/><path d="M461.962,141.687h17.476a.675.675,0,0,0,0-1.349H461.962a.675.675,0,1,0,0,1.349" transform="translate(-433.116 -131.768)" fill="#ff6500"/><path d="M461.962,208.71h14.2a.675.675,0,0,0,0-1.349h-14.2a.675.675,0,1,0,0,1.349" transform="translate(-433.116 -194.698)" fill="#ff6500"/><path d="M473.624,274.385H461.962a.675.675,0,0,0,0,1.349h11.662a.675.675,0,0,0,0-1.349" transform="translate(-433.116 -257.628)" fill="#ff6500"/><path d="M200.24,221.251a.675.675,0,1,0,.675.675.675.675,0,0,0-.675-.675" transform="translate(-187.378 -207.739)" fill="#ff6500"/><path d="M200.24,188.108a.675.675,0,1,0,.675.675.675.675,0,0,0-.675-.675" transform="translate(-187.378 -176.62)" fill="#ff6500"/><path d="M200.24,254.395a.675.675,0,1,0,.675.675.675.675,0,0,0-.675-.675" transform="translate(-187.378 -238.859)" fill="#ff6500"/><path d="M200.24,287.538a.675.675,0,1,0,.675.675.675.675,0,0,0-.675-.675" transform="translate(-187.378 -269.978)" fill="#ff6500"/><path d="M200.24,55.538a.675.675,0,1,0,.675.675.675.675,0,0,0-.675-.675" transform="translate(-187.378 -52.146)" fill="#ff6500"/><path d="M200.24,154.965a.675.675,0,1,0,.675.675.675.675,0,0,0-.675-.675" transform="translate(-187.378 -145.501)" fill="#ff6500"/><path d="M200.24,88.678a.675.675,0,1,0,.675.675.675.675,0,0,0-.675-.675" transform="translate(-187.378 -83.262)" fill="#ff6500"/><path d="M200.24,121.821a.675.675,0,1,0,.675.675.675.675,0,0,0-.675-.675" transform="translate(-187.378 -114.381)" fill="#ff6500"/><path d="M312.77,73.469a3.3,3.3,0,1,0-3.3-3.3,3.3,3.3,0,0,0,3.3,3.3m0-5.243a1.947,1.947,0,1,1-1.947,1.947,1.949,1.949,0,0,1,1.947-1.947" transform="translate(-290.574 -62.793)" fill="#ff6500"/><path d="M290.114,190.118H283.2a1.52,1.52,0,0,0-1.518,1.518v4.035a1.013,1.013,0,0,0,1.012,1.012h7.929a1.013,1.013,0,0,0,1.012-1.012v-4.035a1.52,1.52,0,0,0-1.518-1.518m.169,5.215h-7.255v-3.7a.169.169,0,0,1,.169-.169h6.917a.169.169,0,0,1,.169.169Z" transform="translate(-264.477 -178.508)" fill="#ff6500"/><path d="M54.483,17.023a6.6,6.6,0,0,0-3.071-3.3V1.518A1.52,1.52,0,0,0,49.894,0L13.854.108l-.887.985L12.09.1,1.525,0H1.518A1.52,1.52,0,0,0,0,1.518V20.792A1.52,1.52,0,0,0,1.514,22.31l10.663.1.795-.89.825.894,28.656-.083a6.577,6.577,0,0,0,12.032-5.312M13.522,20.132a.759.759,0,0,0-1.124.009l-.82.918-10.053-.1H1.518a.169.169,0,0,1-.169-.169V1.518a.169.169,0,0,1,.167-.169l9.962.1L12.4,2.483a.76.76,0,0,0,.565.255h0a.76.76,0,0,0,.564-.251l.929-1.031L49.9,1.349a.169.169,0,0,1,.168.169v11.7A6.582,6.582,0,0,0,42,20.988l-27.614.08Zm38.6,3.147a5.226,5.226,0,1,1,1.531-3.7,5.192,5.192,0,0,1-1.531,3.7" fill="#ff6500"/><path d="M758.335,255.757v-2.027c.442.125.605.48.692.99l1.009-.135a1.752,1.752,0,0,0-1.653-1.778v-.817h-.846v.826a1.937,1.937,0,0,0-1.739,1.912c0,1.326.913,1.682,1.8,1.922v2.075c-.7-.087-.922-.49-1.047-1.22l-.98.183a1.96,1.96,0,0,0,1.96,1.893v.8h.855v-.8a1.84,1.84,0,0,0,1.749-1.931c0-1.268-.846-1.643-1.8-1.893m-.74-.221a.966.966,0,0,1-.711-.961.827.827,0,0,1,.711-.855Zm.74,3.152v-1.826a.944.944,0,0,1,.721.932.855.855,0,0,1-.721.894" transform="translate(-709.426 -236.601)" fill="#ff6500"/></g></g></g></svg>