<svg xmlns="http://www.w3.org/2000/svg" viewBox="0 0 105 105">
  <g clip-path="url(#a)" transform="translate(3 16)">
    <path d="m18.07 44.258-4.6-13.637a6.84 6.84 0 0 1 1.987-7.3 6.3 6.3 0 0 1 .879-.64L10.467 5.927a2.56 2.56 0 0 0-1.216-1.426 2.6 2.6 0 0 0-1.864-.222l-1.232.322a2.573 2.573 0 0 0-1.918 2.907l5.471 34.724a5.5 5.5 0 0 0 .287 1.089 5.3 5.3 0 0 0 .513 1l11.25 17.412a15.4 15.4 0 0 1 1.833 3.939 15 15 0 0 1 .6 4.3v2.411h17.97l-.379-9.3-2.226-.937a2.095 2.095 0 0 1 1.631-3.845l.974.411a20.73 20.73 0 0 0-12.738-21.018 2.1 2.1 0 0 1-1.118-1.084l-4.872-9.7a2.574 2.574 0 0 0-3.125-1.3l-1.212.4a2.5 2.5 0 0 0-.886.485 2.72 2.72 0 0 0-.892 1.782 2.7 2.7 0 0 0 .14 1.015l4.732 14.042a2.1 2.1 0 0 1 .119 1.2l-.6 3.016a2.1 2.1 0 1 1-4.124-.805l.489-2.481ZM41.577 7.653a2.094 2.094 0 0 1-3.631 2.087l-1.767-3.06a2.094 2.094 0 1 1 3.631-2.087ZM61.062 9.74a2.094 2.094 0 1 1-3.631-2.087l1.769-3.06a2.094 2.094 0 0 1 3.631 2.087Zm-9.455-3.656a2.103 2.103 0 1 1-4.206 0V2.552a2.103 2.103 0 1 1 4.206 0Zm-.247 5.932 3.434 6.465 7 1.129a2.1 2.1 0 0 1 1.175 3.533l-5.086 5.258 1.089 7.015a2.1 2.1 0 0 1-1.751 2.391 2.07 2.07 0 0 1-1.3-.222l-6.516-3.184-6.342 3.207a2.1 2.1 0 0 1-2.818-.927 2.07 2.07 0 0 1-.205-1.232l1.026-7.262-5.006-5.037a2.1 2.1 0 0 1 .008-2.965 2.14 2.14 0 0 1 1.118-.579l7.221-1.269 3.237-6.309a2.1 2.1 0 0 1 3.72-.027Zm.209 9.348-2.037-3.84-1.8 3.512a2.1 2.1 0 0 1-1.586 1.273l-4.28.752 2.866 2.883a2.09 2.09 0 0 1 .633 1.8l-.608 4.312 3.684-1.864a2.1 2.1 0 0 1 1.864-.008l3.914 1.917-.62-4a2.1 2.1 0 0 1 .555-1.857l3.023-3.122-4-.645a2.1 2.1 0 0 1-1.6-1.105Zm26.456 55.225H54.19v3.87h23.835zm-21.174-4.206h17.97v-2.411a14.75 14.75 0 0 1 2.436-8.244L88.5 44.316a5.2 5.2 0 0 0 .8-2.082l5.483-34.733a2.6 2.6 0 0 0-.394-1.836 2.56 2.56 0 0 0-1.524-1.077l-1.232-.311a2.575 2.575 0 0 0-3.08 1.642l-5.874 16.756a7 7 0 0 1 .879.641 6.8 6.8 0 0 1 1.622 2.106 6.58 6.58 0 0 1 .365 5.192l-4.6 13.637.489 2.481a2.1 2.1 0 0 1-4.124.805l-.6-3.015a2.1 2.1 0 0 1 .119-1.2l4.741-14.034a2.6 2.6 0 0 0 .14-1.006 2.5 2.5 0 0 0-.275-.981 2.6 2.6 0 0 0-.616-.814 2.6 2.6 0 0 0-.891-.486l-1.212-.4a2.56 2.56 0 0 0-3.122 1.3l-4.876 9.7a2.1 2.1 0 0 1-1.118 1.083 20.73 20.73 0 0 0-12.736 21.017l.974-.41a2.094 2.094 0 0 1 1.627 3.86l-2.226.937-.374 9.3Zm22.176.123a4.24 4.24 0 0 1 1.967 1.118 4.15 4.15 0 0 1 1.237 2.969v3.874a4.2 4.2 0 0 1-1.237 2.965 4.14 4.14 0 0 1-2.965 1.237H54.194a4.21 4.21 0 0 1-4.206-4.2v-3.876a4.22 4.22 0 0 1 2.658-3.914l.435-10.806a24.945 24.945 0 0 1 14.187-27.745l1.577-3.139L64.9 20.235a5.81 5.81 0 0 1 2.491-7.034l1.191-.711a5.8 5.8 0 0 1 2.218-.784c.148-.021.3-.033.448-.041a5.8 5.8 0 0 1 2.415-4.7l1.121-.825a5.9 5.9 0 0 1 2.132-.978 5.7 5.7 0 0 1 2.345-.041 5.72 5.72 0 0 1 3.844 2.538l.256.39 1.228-3.5A6.767 6.767 0 0 1 92.645.215l1.232.312a6.77 6.77 0 0 1 5.04 7.628l-5.475 34.733a9.6 9.6 0 0 1-.5 1.935 9.4 9.4 0 0 1-.916 1.774L80.778 64.009a10.4 10.4 0 0 0-1.762 5.977v2.53Zm-6.05-55.873a1.4 1.4 0 0 0-.361-.42 1.7 1.7 0 0 0-.592-.291 1.7 1.7 0 0 0-.666-.062 1.7 1.7 0 0 0-.628.226l-1.19.715a1.625 1.625 0 0 0-.707 1.987l2.592 7.057.411-.821a6.74 6.74 0 0 1 3.454-3.233l.119-.049-2.435-5.114Zm8.642-3.615-2.013-3.06a1.7 1.7 0 0 0-.464-.476 1.6 1.6 0 0 0-.616-.239 1.7 1.7 0 0 0-.67.008 1.6 1.6 0 0 0-.6.283l-1.121.826a1.6 1.6 0 0 0-.629.924 1.67 1.67 0 0 0 .119 1.117l3.581 7.52 2.42-6.9ZM19.983 72.51v-2.53a10.5 10.5 0 0 0-1.754-5.979L6.97 46.591a9.05 9.05 0 0 1-1.412-3.7L.083 8.15A6.77 6.77 0 0 1 5.123.523L6.354.21a6.77 6.77 0 0 1 8.056 4.338l1.228 3.5.254-.39a5.67 5.67 0 0 1 3.844-2.538 5.68 5.68 0 0 1 4.474 1.021l1.125.81a5.8 5.8 0 0 1 2.415 4.712q.22.01.435.041a5.8 5.8 0 0 1 2.219.784l1.2.71a5.86 5.86 0 0 1 2.53 3.065 5.8 5.8 0 0 1-.033 3.967l-3.948 10.754 1.573 3.138A24.94 24.94 0 0 1 45.91 61.875l.44 10.806a4.25 4.25 0 0 1 1.421.941 4.14 4.14 0 0 1 1.237 2.969v3.874a4.22 4.22 0 0 1-4.2 4.2H20.965a4.22 4.22 0 0 1-4.2-4.2v-3.873A4.2 4.2 0 0 1 18 73.618a4.27 4.27 0 0 1 1.967-1.117Zm24.834 4.083H20.985v3.873h23.836v-3.873ZM23.593 21.746l.123.049a6.77 6.77 0 0 1 3.455 3.224l.414.825 2.588-7.052a1.625 1.625 0 0 0-.707-1.987l-1.191-.711a1.6 1.6 0 0 0-.624-.226 1.6 1.6 0 0 0-.666.062 1.7 1.7 0 0 0-.592.291 1.6 1.6 0 0 0-.41.522L23.6 21.75Zm-6.206-8.729 2.42 6.9 3.581-7.52a1.63 1.63 0 0 0-.5-2.045l-1.126-.81a1.55 1.55 0 0 0-.6-.291 1.8 1.8 0 0 0-.678-.008 1.7 1.7 0 0 0-.62.234 1.8 1.8 0 0 0-.464.481Z" fill="#FF6500"/>
  </g>
  <path fill="none" d="M0 0h105v105H0z"/>
</svg>
