<svg xmlns="http://www.w3.org/2000/svg" xmlns:xlink="http://www.w3.org/1999/xlink" width="55" height="55" viewBox="0 0 55 55"><defs><clipPath id="a"><rect width="55" height="31.803" fill="#ff6500"/></clipPath></defs><g transform="translate(-1347 -1029)"><g transform="translate(1347 1039)"><g clip-path="url(#a)"><path d="M24.839,21.157a7.689,7.689,0,0,0-6.609-5.913,7.3,7.3,0,0,0,2.3-5.292V7.3a7.3,7.3,0,0,0-7.3-7.3,7.4,7.4,0,0,0-7.3,7.3V9.951a7.325,7.325,0,0,0,2.3,5.292,7.612,7.612,0,0,0-6.609,5.913L.079,27.691A3.551,3.551,0,0,0,.7,30.549,3.239,3.239,0,0,0,3.347,31.8H22.963a3.443,3.443,0,0,0,2.646-1.255,3.236,3.236,0,0,0,.621-2.857ZM7.931,9.951V7.3a5.218,5.218,0,1,1,10.435,0V9.951a5.218,5.218,0,1,1-10.435,0M24.006,29.219a1.478,1.478,0,0,1-1.044.485H3.347A1.478,1.478,0,0,1,2.3,29.219,1.308,1.308,0,0,1,2.03,28.1L3.5,21.567a5.584,5.584,0,0,1,5.429-4.385h8.348A5.523,5.523,0,0,1,22.7,21.567L24.168,28.1a.98.98,0,0,1-.161,1.118" transform="translate(0)" fill="#ff6500"/><path d="M256.742,27.691l-1.454-6.535a7.689,7.689,0,0,0-6.609-5.913,7.3,7.3,0,0,0,2.3-5.292V7.3a7.3,7.3,0,1,0-14.61,0V9.951a7.325,7.325,0,0,0,2.3,5.292,7.612,7.612,0,0,0-6.609,5.913l-1.528,6.535a3.551,3.551,0,0,0,.621,2.857A3.239,3.239,0,0,0,233.8,31.8h19.616a3.443,3.443,0,0,0,2.646-1.255,3.368,3.368,0,0,0,.683-2.857M238.381,9.951V7.3a5.218,5.218,0,0,1,10.436,0V9.951a5.218,5.218,0,0,1-10.436,0m16.076,19.268a1.478,1.478,0,0,1-1.044.485H233.8a1.478,1.478,0,0,1-1.044-.485,1.309,1.309,0,0,1-.273-1.118l1.466-6.535a5.584,5.584,0,0,1,5.429-4.385h8.348a5.523,5.523,0,0,1,5.429,4.385l1.466,6.535a.98.98,0,0,1-.161,1.118" transform="translate(-201.821)" fill="#ff6500"/></g></g><rect width="55" height="55" transform="translate(1347 1029)" fill="none"/></g></svg>