<svg xmlns="http://www.w3.org/2000/svg" xmlns:xlink="http://www.w3.org/1999/xlink" viewBox="0 0 40 40">
  <path d="M19.82,0C1.439,0,0,1.439,0,19.82v.36C0,38.561,1.439,40,19.82,40h.359C38.561,40,40,38.561,40,20.18V20C40,1.452,38.548,0,20,0ZM16,4h8c11.129,0,12,.871,12,12v8c0,11.129-.871,12-12,12H16C4.871,36,4,35.129,4,24V16C4,4.871,4.871,4,16,4M29.994,8A2,2,0,1,0,32,9.994,2,2,0,0,0,29.994,8M19.976,10A10,10,0,1,0,30,19.977,10,10,0,0,0,19.976,10m.01,4A6,6,0,1,1,14,20.014,6,6,0,0,1,19.986,14" fill="#fff"/>
</svg>
