<svg xmlns="http://www.w3.org/2000/svg" xmlns:xlink="http://www.w3.org/1999/xlink" viewBox="0 0 40 40">
  <path d="M35.238,0H4.762A4.767,4.767,0,0,0,0,4.762V35.238A4.767,4.767,0,0,0,4.762,40H35.238A4.767,4.767,0,0,0,40,35.238V4.762A4.767,4.767,0,0,0,35.238,0m-3.8,17.45c-.216.02-.435.033-.657.033a7.135,7.135,0,0,1-5.97-3.227V25.245a8.121,8.121,0,1,1-8.121-8.121c.17,0,.335.015.5.026v4a4.135,4.135,0,1,0-.5,8.239A4.246,4.246,0,0,0,21,25.3c0-.09.04-18.661.04-18.661h3.825A7.131,7.131,0,0,0,31.434,13Z" fill="#fff"/>
</svg>
