<?xml version="1.0" encoding="UTF-8"?>
<svg id="Layer_2" data-name="Layer 2" xmlns="http://www.w3.org/2000/svg" viewBox="0 0 51.11 51.11">
  <defs>
    <style>
      .cls-1 {
        fill: none;
      }

      .cls-2 {
        fill: #fff;
        stroke: #fff;
        stroke-miterlimit: 10;
        stroke-width: 3px;
      }
    </style>
  </defs>
  <g id="Layer_1-2" data-name="Layer 1">
    <g>
      <path class="cls-2" d="M20.23,14.9h10.67c.66,0,1.16-.71,1.16-1.64v-7.75c0-.94-.5-1.64-1.16-1.64h-10.67c-.66,0-1.16.71-1.16,1.64v7.75c0,.94.5,1.64,1.16,1.64ZM20.24,5.51c0-.23.06-.4.1-.47h10.45c.04.08.1.24.1.47v7.75c0,.23-.06.4-.1.47h-10.45c-.04-.08-.1-.24-.1-.47v-7.75Z"/>
      <path class="cls-2" d="M18.32,36.59H7.65c-.66,0-1.16.71-1.16,1.64v7.75c0,.94.5,1.64,1.16,1.64h10.67c.66,0,1.16-.71,1.16-1.64v-7.75c0-.94-.5-1.64-1.16-1.64ZM18.31,45.98c0,.23-.06.4-.1.47H7.76c-.04-.08-.1-.24-.1-.47v-7.75c0-.23.06-.4.1-.47h10.45c.04.08.1.24.1.47v7.75Z"/>
      <path class="cls-2" d="M42.91,36.59h-10.67c-.66,0-1.16.71-1.16,1.64v7.75c0,.94.5,1.64,1.16,1.64h10.67c.66,0,1.16-.71,1.16-1.64v-7.75c0-.94-.5-1.64-1.16-1.64ZM42.9,45.98c0,.23-.06.4-.1.47h-10.45c-.04-.08-.1-.24-.1-.47v-7.75c0-.23.06-.4.1-.47h10.45c.04.08.1.24.1.47v7.75h0Z"/>
      <path class="cls-2" d="M37.08,31.74c0,.32.26.58.58.58s.58-.26.58-.58v-5.84c0-.32-.26-.58-.58-.58h-11.76v-5.97c0-.32-.26-.58-.58-.58s-.58.26-.58.58v5.97h-11.76c-.32,0-.58.26-.58.58v5.84c0,.32.26.58.58.58s.58-.26.58-.58v-5.25h23.52v5.25Z"/>
    </g>
    <rect class="cls-1" width="51.11" height="51.11"/>
  </g>
</svg>