<svg xmlns="http://www.w3.org/2000/svg" width="80.267" height="80.608" viewBox="0 0 80.267 80.608"><path d="M78.265,78.606l-5.388-19.67a37.975,37.975,0,1,0-32.9,19.012h.016a37.93,37.93,0,0,0,18.146-4.622Z" transform="translate(0.001)" fill="#fff" fill-rule="evenodd"/><path d="M78.266,79.606a1,1,0,0,0,.964-1.262L73.952,59.072a38.968,38.968,0,1,0-15.69,15.322l19.75,5.178a.915.915,0,0,0,.254.034" transform="translate(0)" fill="#fff" fill-rule="evenodd"/><path d="M39.974,2a37.974,37.974,0,0,0,0,75.948h.016a37.93,37.93,0,0,0,18.146-4.622l20.13,5.28-5.388-19.67A37.978,37.978,0,0,0,39.974,2m0,75.948h0m0,0h0M39.974,0h0A39.983,39.983,0,0,1,75.026,59.2L80.2,78.08a2,2,0,0,1-2.438,2.462l-19.374-5.08A39.976,39.976,0,1,1,39.974,0" transform="translate(0)" fill="#cfd8dc" fill-rule="evenodd"/><path d="M17.965,17.664A31.564,31.564,0,0,1,67.027,56.752l-.752,1.194,3.19,11.642L57.519,66.456l-1.154.684a31.5,31.5,0,0,1-16.064,4.4h-.012A31.564,31.564,0,0,1,17.965,17.664" transform="translate(0)" fill="#40c351" fill-rule="evenodd"/><path d="M30.8,24.09c-.71-1.58-1.458-1.612-2.136-1.64-.554-.024-1.186-.022-1.818-.022a3.487,3.487,0,0,0-2.53,1.188,10.635,10.635,0,0,0-3.322,7.912c0,4.668,3.4,9.18,3.874,9.812s6.564,10.518,16.208,14.322c8.014,3.16,9.646,2.532,11.386,2.374s5.614-2.294,6.4-4.51.79-4.114.554-4.51-.87-.632-1.818-1.108-5.614-2.77-6.484-3.086-1.5-.474-2.136.476-2.45,3.086-3,3.718-1.108.714-2.056.238a25.971,25.971,0,0,1-7.63-4.708,28.586,28.586,0,0,1-5.278-6.57c-.554-.948-.06-1.462.416-1.936.426-.426.948-1.108,1.424-1.662A6.489,6.489,0,0,0,33.8,32.8a1.745,1.745,0,0,0-.08-1.662c-.234-.476-2.078-5.168-2.922-7.044" transform="translate(-0.286 0)" fill="#fff" fill-rule="evenodd"/><rect width="80.267" height="80.608" fill="none"/></svg>