<svg xmlns="http://www.w3.org/2000/svg" viewBox="0 0 40 40">
  <path d="M1.9,0A1.923,1.923,0,0,0,0,1.9V38.1A1.923,1.923,0,0,0,1.9,40H38.1A1.923,1.923,0,0,0,40,38.1V1.9A1.923,1.923,0,0,0,38.1,0Zm0,1.9H38.1V38.1H1.9Zm15.374,10.94-2.857,4.762a.952.952,0,0,0,.817,1.441h1.9l-1.737,2.675a.953.953,0,0,0,.785,1.492h2.5l.952-1.9H18l2-4.167H16.92l1.992-3.319ZM20,17.143h1.9V23.81H20l-.952,1.9h6.667v-1.9h-1.9V17.143h1.9v-1.9H20ZM8.571,24.762h1.9V14.286h-1.9ZM27.619,14.286v.952h-.952v1.9h.952v1.9h-1.9v1.9h1.9v4.762h1.9V20.952h2.857V23.81H30.525c.219,1.086.228,1.9,1.38,1.9a2.382,2.382,0,0,0,2.381-2.381V20.952a1.91,1.91,0,0,0-1.9-1.9v-1.9a1.9,1.9,0,0,0-1.9-1.9h-.952v-.952Zm6.667.952a.953.953,0,0,0-.952.952v.952h.952a.952.952,0,1,0,0-1.9m-28.571,1.9v1.9c0,2.019-.475,3.873-.85,4.059l.27,1.884c2.306-.33,2.485-4.632,2.485-5.943v-1.9Zm5.714,0v1.84c0,1,.089,4.358,1.231,5.5l1.347-1.347c-.351-.351-.672-2.331-.673-4.154v-1.84Zm18.1,0h.952v1.9h-.952ZM15.238,23.81l-.952,1.9h2.857l.952-1.9Z" fill="#fff"/>
</svg>
